<?xml version="1.0" encoding="UTF-8"?>
<svg id="Calque_2" data-name="Calque 2" xmlns="http://www.w3.org/2000/svg" xmlns:xlink="http://www.w3.org/1999/xlink" viewBox="0 0 113.51 66.14">
  <defs>
    <style>
      .cls-1 {
        fill: url(#Dégradé_sans_nom_10-3);
      }

      .cls-2 {
        fill: url(#Dégradé_sans_nom_10-2);
      }

      .cls-3 {
        fill: url(#Dégradé_sans_nom_10-5);
      }

      .cls-4 {
        fill: url(#Dégradé_sans_nom_10-4);
      }

      .cls-5 {
        fill: url(#Dégradé_sans_nom_10);
      }
    </style>
    <linearGradient id="Dégradé_sans_nom_10" data-name="Dégradé sans nom 10" x1="60.41" y1="33.06" x2="113.51" y2="33.06" gradientUnits="userSpaceOnUse">
      <stop offset="0" stop-color="#e67e73"/>
      <stop offset="1" stop-color="#ffc499"/>
    </linearGradient>
    <linearGradient id="Dégradé_sans_nom_10-2" data-name="Dégradé sans nom 10" x1="0" y1="33.11" x2="53.16" y2="33.11" xlink:href="#Dégradé_sans_nom_10"/>
    <linearGradient id="Dégradé_sans_nom_10-3" data-name="Dégradé sans nom 10" x1="46.54" y1="16.2" x2="53.12" y2="16.2" xlink:href="#Dégradé_sans_nom_10"/>
    <linearGradient id="Dégradé_sans_nom_10-4" data-name="Dégradé sans nom 10" x1="60.49" y1="16.38" x2="67.07" y2="16.38" xlink:href="#Dégradé_sans_nom_10"/>
    <linearGradient id="Dégradé_sans_nom_10-5" data-name="Dégradé sans nom 10" x1="54.46" y1="46.47" x2="58.94" y2="46.47" xlink:href="#Dégradé_sans_nom_10"/>
  </defs>
  <g id="Calque_1-2" data-name="Calque 1">
    <g>
      <path class="cls-5" d="M60.7,45.91c1.86,2.61,3.52,5.15,5.39,7.5,1.87,2.35,4.2,4.23,7.02,5.37.76.31,1.59.49,2.41.56,3.17.25,5.21-2.06,4.69-5.22-.6-3.6-2.84-6.03-5.63-8.08-3.59-2.63-7.55-4.37-11.98-4.97-.17-.02-.33-.09-.52-.44,1.29-.12,2.62-.46,3.88-.3,3.68.45,7.35,1.03,10.99,1.7,2.65.49,5.23.96,7.87-.04,2.5-.95,4.13-2.68,5.11-5.12-.12-.07-.22-.17-.25-.15-3.88,2.18-8.03,2.13-12.25,1.47-4.73-.74-9.47-1.11-14.24-.51-.21.03-.43,0-.74-.23.44-.19.86-.47,1.32-.56,3.38-.65,6.77-1.28,10.16-1.88,2.49-.44,5.06-.58,7.48-1.27,4.11-1.17,5.96-3.95,5.94-8.23-.01-2.37-.27-4.75-.07-7.09.45-5.16,4.29-6.73,7.85-5.39.19.07.41.06.85.11-1.99-2.35-4.41-2.93-7.09-2.69-3.64.32-6.93,1.76-10.13,3.42-6.61,3.43-11.97,8.34-16.49,14.21-.5.65-1.06,1.25-1.83,1.73.28-.57.53-1.15.83-1.7,6.9-12.5,16.81-21.54,30.28-26.41,5.31-1.92,10.77-2.24,16.25-.69,1.12.32,2.22.83,3.22,1.42,2.75,1.63,3.32,4.69,1.3,7.19-.78.97-1.75,1.89-2.82,2.53-7.95,4.71-11.73,11.97-12.96,20.88-.41,2.99-1.34,5.81-3.11,8.29-1.93,2.71-4.57,4.13-7.88,4.3-.69.04-1.38,0-2.41,0,.98,1.09,1.77,1.92,2.5,2.8,2.93,3.55,4.01,7.51,2.15,11.88-2.56,6.01-9.97,7.71-15.49,3.52-5.94-4.51-9.45-10.66-11.58-17.9Z"/>
      <path class="cls-2" d="M52.88,45.54c0,.59.06.81,0,1-2.35,6.7-5.77,12.7-11.52,17.07-2.8,2.13-5.94,3.18-9.48,2.11-6.52-1.97-9.07-9.61-5.15-15.67.94-1.45,2.23-2.66,3.46-4.1-.21-.08-.51-.3-.79-.28-7.13.53-10.81-5.05-12.01-10.56-.72-3.33-1.36-6.71-2.38-9.95-1.48-4.7-4.5-8.36-8.48-11.25-1.66-1.2-3.32-2.44-4.8-3.86C-.85,7.6-.49,4.33,2.48,2.38,4.61.97,7.03.39,9.54.19c7.25-.6,13.81,1.54,20.04,5.04,9.84,5.52,17.34,13.37,22.83,23.21.31.55.53,1.15.75,1.65-2.65-2.88-5.15-5.95-8.02-8.62-5.4-5.05-11.55-8.96-18.81-10.77-2.6-.65-5.23-.51-7.54,1.16-.32.23-.61.49-.9.76-.12.11-.19.27-.37.53.78-.14,1.41-.27,2.05-.37,3.2-.49,5.93,1.28,6.5,4.47.32,1.75.23,3.58.25,5.37.02,1.18-.15,2.37-.14,3.55.03,3.64,1.71,6.3,5.19,7.19,3.88.99,7.88,1.52,11.84,2.15,2.58.41,5.2.58,7.49,2.19-.96-.08-1.92-.29-2.86-.23-4.05.23-8.13.35-12.15.86-3.6.45-7.05.33-10.46-.91-.44-.16-.89-.26-1.62-.46.99,2.57,2.61,4.14,4.89,5.06,2.25.91,4.57.61,6.86.23,3.36-.56,6.7-1.29,10.07-1.72,1.88-.24,3.82-.04,5.74-.04.01.11.03.22.04.33-.82.2-1.64.38-2.45.59-5.27,1.4-9.99,3.75-13.47,8.1-.67.84-1.2,1.84-1.62,2.84-.96,2.28-.54,4.68.91,5.99,1.36,1.22,4.03,1.32,6.07.24,4.32-2.29,7.74-5.54,10.28-9.72.6-.99,1.19-2,1.95-3.31Z"/>
      <path class="cls-1" d="M50.33,12.5c.46.74.39,1.66-.1,2.32,1.39,2.48,2.41,4.63,2.89,6.07-1.07-1.06-2.55-2.93-4.15-5.28-.8.15-1.66-.19-2.11-.93-.44-.71-.4-1.59.05-2.25.16-.23.36-.43.61-.58s.52-.25.79-.29c.78-.11,1.59.23,2.03.95Z"/>
      <path class="cls-4" d="M63.28,12.67c-.46.74-.39,1.66.1,2.32-1.39,2.48-2.41,4.63-2.89,6.07,1.07-1.06,2.55-2.93,4.15-5.28.8.15,1.66-.19,2.11-.93.44-.71.4-1.59-.05-2.25-.16-.23-.36-.43-.61-.58s-.52-.25-.79-.29c-.78-.11-1.59.23-2.03.95Z"/>
      <path class="cls-3" d="M58.93,38.36c-.42,7.27-2.19,26-2.29,26-.17-1.36-1.72-18.86-2.17-26.26-.09-1.51.61-3.05.79-4.59.08-.68-.11-1.42-.31-2.1-.11-.25-.17-.52-.17-.81,0-.01,0-.02,0-.03,0-.55.24-1.05.61-1.4,0,0,0,0,.01,0,.36-.34.84-.55,1.37-.55.76,0,1.42.43,1.75,1.05.13.25.21.52.23.82,0,.03,0,.05,0,.08,0,.02,0,.03,0,.04,0,.3-.06.58-.18.83-.17.72-.54,1.8-.29,2.47.41,1.08.73,3.34.66,4.47Z"/>
    </g>
  </g>
</svg>